<svg t="1706968240047" class="icon" viewBox="0 0 1024 1024" version="1.1" xmlns="http://www.w3.org/2000/svg" p-id="4468" width="200" height="200"><path d="M881.6 512.1c0 203.7-165.7 369.5-369.5 369.5S142.6 715.8 142.6 512.1s165.7-369.5 369.5-369.5 369.5 165.8 369.5 369.5m77.7 0c0-246.6-200.6-447.2-447.2-447.2S64.9 265.5 64.9 512.1s200.6 447.2 447.2 447.2 447.2-200.6 447.2-447.2M582.5 318.2c9-9 14.2-21.6 14.2-34.3 0-12.8-5.2-25.4-14.2-34.4s-21.6-14.2-34.4-14.2c-12.7 0-25.3 5.2-34.3 14.2-9.1 9-14.3 21.6-14.3 34.4 0 12.7 5.2 25.3 14.3 34.3 9 9 21.5 14.3 34.3 14.3s25.3-5.3 34.4-14.3m-96.6 464.3c-7.6 0-15.2-2.6-21.3-7.5-9.9-7.9-14.5-20.7-12.1-33.1l47.9-243.1-26.4 14.8c-16.4 9.2-37.1 3.4-46.3-13-9.2-16.4-3.4-37.1 12.9-46.3l90.7-51.1c11.6-6.5 25.9-5.7 36.6 2.1 10.8 7.8 16 21.1 13.4 34.1l-49.6 251.9 40.7-17.7c17.2-7.5 37.3 0.4 44.8 17.6 7.5 17.2-0.4 37.3-17.6 44.8l-100.2 43.7c-4.3 1.9-8.9 2.8-13.5 2.8" p-id="4469"></path></svg>