<svg t="1699022417325" class="icon" viewBox="0 0 1024 1024" version="1.1" xmlns="http://www.w3.org/2000/svg" p-id="3031" width="200" height="200"><path d="M871.37947021 814.43663808c-2.69970908 14.46767138-11.90640937 23.84743008-23.43208974 23.84743096h-1.93825284a41.25709248 41.25709248 0 0 0-40.94558789 41.43015c0.31150459 5.4340295 1.5229125 10.79883633 3.59961241 15.81752637a30.0429167 30.0429167 0 0 1-10.0719914 36.16917978l-1.14218526 0.79606758-47.52180176 26.4779165a29.80063477 29.80063477 0 0 1-13.04859375 3.01121368 31.49660566 31.49660566 0 0 1-23.29364355-10.14121495c-6.16087442-6.68004961-22.35912891-20.59393448-33.78097529-20.59393446-11.14495313 0-27.65471221 13.91388487-33.40024718 20.24781767a31.84272246 31.84272246 0 0 1-35.23466425 7.40689453l-47.00262744-26.47791563a30.31980996 30.31980996 0 0 1-11.07572959-36.96524735c0.96912597-2.35359229 3.56500019-9.79509815 3.56500019-15.67908018 0-22.8436919-18.44801191-41.46476221-40.98019922-41.46476221h-1.62674736c-11.83718584 0-21.0092748-9.37975869-23.74359522-23.88204228a249.37697285 249.37697285 0 0 1-4.01495273-38.45354854c0-16.16364317 3.5996124-36.34223731 4.01495273-38.45354853 2.73432041-14.46767138 11.90640937-23.91665362 23.43208975-23.91665274h1.93825283c22.60141084 0 40.94558789-18.51723545 41.01481143-41.39553955a47.86791855 47.86791855 0 0 0-3.63422373-15.81752636 30.18136289 30.18136289 0 0 1 10.10660273-36.23840245l1.14218438-0.69223359 48.76782187-27.10092568 0.89990332-0.38072813a32.15422705 32.15422705 0 0 1 34.957771 7.37228232c5.91859336 6.29932148 21.87456592 19.41713877 32.91568418 19.41713878 10.90267119 0 26.75480888-12.84092402 32.67340224-19.10563331a32.32728545 32.32728545 0 0 1 35.06160586-7.06077773l47.83330723 26.78942109c12.42558369 8.72213731 16.78665234 24.4012166 11.11034092 37.06908222a49.94461758 49.94461758 0 0 0-3.53038886 15.6790793 41.25709248 41.25709248 0 0 0 40.94558789 41.39553955h1.66135956c11.7679623 0 20.9746626 9.41437002 23.70898389 23.95126495 0.41533945 2.14592256 4.04956318 22.25529404 4.04956319 38.45354853 0 16.99432295-4.04956318 38.31510234-3.98034054 38.48815986z m-35.68461591-63.89311464a78.77612636 78.77612636 0 0 1-67.97729004-78.43000957c0.13844619-8.13373857 1.55752471-16.23286582 4.18801025-23.95126494l-33.88481016-19.03641065c-3.11504854 2.90737881-7.99529238 7.19922393-13.98310839 11.45645771-14.77917685 10.52194307-28.90073144 15.8521377-42.19160713 15.8521377-13.46393408 0-27.75854707-5.33019463-42.64155879-16.16364228a124.35967617 124.35967617 0 0 1-13.9831084-11.73335099l-35.40772354 19.69403116c1.97286416 5.95320469 4.18801026 14.70995332 4.18801026 23.91665361a78.91457344 78.91457344 0 0 1-68.04651357 78.46462178c-0.96912597 6.47237989-2.35359229 16.95971075-2.35359229 25.33573125 0.24228193 8.47985537 1.00373818 16.92509941 2.35359229 25.30111993a78.77612636 78.77612636 0 0 1 68.04651357 78.46462089c0 9.13747675-2.31898096 17.96344893-4.22262159 23.95126583l32.77723711 18.51723544c4.39567998-4.25723379 9.06825322-8.27218565 13.98310841-11.97563291 15.05607011-11.07572959 29.62757636-16.82126455 43.26456885-16.82126455 13.77543867 0 28.48539199 5.84936982 43.67990829 17.16738135 4.98407872 3.7726708 9.65665195 7.85684531 14.08694327 12.21791396l34.30015048-19.10563329a78.8453499 78.8453499 0 0 1-4.15339892-23.95126583 78.74151503 78.74151503 0 0 1 67.97729004-78.46462089c0.96912597-6.54160253 2.35359229-17.09815781 2.35359228-25.37034346 0-8.23757344-1.38446631-18.75951651-2.35359228-25.33573125z m-155.68322344 98.2971c-39.94184971-0.03461133-72.26913516-32.77723711-72.33835869-73.20364981 0.06922354-40.39180136 32.43112031-73.09981494 72.33835869-73.13442715 39.90723838 0.03461133 72.26913516 32.74262578 72.33835869 73.13442716-0.10383487 40.39180136-32.43112031 73.13442627-72.33835869 73.2036498z m0-107.22690703c-18.82874004 0-34.26553828 15.05607011-35.06160674 34.05786855a35.30388779 35.30388779 0 0 0 35.06160674 35.51155752c9.31053516 0 18.24034219-3.73805859 24.81655693-10.383496 6.57621474-6.68004961 10.2450498-15.71369151 10.24504981-25.12806152a35.3385 35.3385 0 0 0-35.06160674-34.05786855z m96.28962364-569.05021758c0-30.52747969-24.47044013-55.27481308-54.61719083-55.27481221H257.7494419c-30.14675156 0-54.6171917 24.74733339-54.61719171 55.27481221v635.43537158c0 30.52747969 24.47044013 55.27481308 54.61719171 55.27481308h218.39954238v55.27481309h-218.39954238C197.45593877 918.54849658 148.5496707 869.01921846 148.5496707 807.99887041V172.56349883C148.5496707 111.54315166 197.45593877 62.01387354 257.7494419 62.01387354h463.93462177c60.29350312 0 109.19977119 49.52927812 109.19977031 110.54962529v416.72432461h-54.58257949V172.56349883z m-266.30207227 373.00980498h-13.74082647a20.42087607 20.42087607 0 0 1-20.42087695-20.69777022 20.42087607 20.42087607 0 0 1 20.42087695-20.69776933h13.74082647c11.35262285 0 20.76699287 9.17208896 20.42087607 20.69776933a20.42087607 20.42087607 0 0 1-20.42087607 20.69777022z m-81.75272871-41.39553955c11.38723417 0 20.45548828 9.17208896 20.45548828 20.69776933a20.45548828 20.45548828 0 0 1-20.45548828 20.69777022H319.04668232a20.42087607 20.42087607 0 0 1-20.42087607-20.69777022 20.42087607 20.42087607 0 0 1 20.42087607-20.69776933h109.1997712z m225.11420332-221.41075606H325.76134326a27.41243027 27.41243027 0 0 1-27.13553701-27.44704248c0-14.95223526 12.04485557-27.48165381 27.13553701-27.4816538h327.59931357a26.99709082 26.99709082 0 0 1 27.13553702 27.4816538c0 14.88301172-12.07946778 27.44704248-27.13553701 27.44704248z m0 138.34278458H325.76134326a27.41243027 27.41243027 0 0 1-27.13553701-27.48165382c0-14.91762305 12.04485557-27.44704248 27.13553701-27.44704248h327.94543037a27.48165381 27.48165381 0 0 1-0.3461168 54.9286963z" p-id="3032"></path></svg>