<svg t="1699279761473" class="icon" viewBox="0 0 1024 1024" version="1.1" xmlns="http://www.w3.org/2000/svg" p-id="3001" width="200" height="200"><path d="M764.658907 51.2903 259.341093 51.2903c-65.738272 0-118.834568 53.096296-118.834568 118.834568l0 683.750265c0 65.738272 53.096296 118.834568 118.834568 118.834568l297.267019 0 59.597884 0 29.618342 0L645.824339 971.626102c97.16261-11.197178 225.749559-127.142152 236.585538-236.585538l1.083598 0L883.493474 170.124868C883.493474 104.386596 830.397178 51.2903 764.658907 51.2903L764.658907 51.2903zM630.653968 913.111817l-14.809171 0 0-118.834568 0-29.618342c0-16.253968 13.364374-29.618342 29.618342-29.618342l29.618342 0 147.008113 0C808.364021 808.364021 697.837037 913.111817 630.653968 913.111817L630.653968 913.111817zM823.895591 675.442681l-222.859965 0 0 2.167196c-20.949559 5.417989-37.203527 21.671958-42.621517 42.621517l-2.167196 0 0 14.809171 0 178.432451L259.341093 913.473016c-32.869136 0-59.597884-26.728748-59.597884-59.597884L199.74321 170.124868c0-32.869136 26.728748-59.597884 59.597884-59.597884l505.317813 0c32.869136 0 59.597884 26.728748 59.597884 59.597884L824.25679 675.442681 823.895591 675.442681zM444.997531 526.628571 326.162963 526.628571c-12.280776 0-22.394356 10.11358-22.394356 22.394356 0 12.280776 10.11358 22.394356 22.394356 22.394356l118.834568 0c12.280776 0 22.394356-10.11358 22.394356-22.394356C467.391887 536.742152 457.278307 526.628571 444.997531 526.628571L444.997531 526.628571zM534.213757 526.628571l-14.809171 0c-12.280776 0-22.394356 10.11358-22.394356 22.394356 0 12.280776 10.11358 22.394356 22.394356 22.394356l14.809171 0c12.280776 0 22.394356-10.11358 22.394356-22.394356C556.608113 536.742152 546.494533 526.628571 534.213757 526.628571L534.213757 526.628571zM690.251852 378.175661 333.748148 378.175661c-16.253968 0-29.618342 13.364374-29.618342 29.618342 0 16.253968 13.364374 29.618342 29.618342 29.618342l356.864903 0c16.253968 0 29.618342-13.364374 29.618342-29.618342C719.870194 391.540035 706.50582 378.175661 690.251852 378.175661L690.251852 378.175661zM690.251852 229.361552 333.748148 229.361552c-16.253968 0-29.618342 13.364374-29.618342 29.618342 0 16.253968 13.364374 29.618342 29.618342 29.618342l356.864903 0c16.253968 0 29.618342-13.364374 29.618342-29.618342C719.870194 242.725926 706.50582 229.361552 690.251852 229.361552L690.251852 229.361552zM690.251852 229.361552" p-id="3002"></path></svg>