<svg t="1696609474767" class="icon" viewBox="0 0 1024 1024" version="1.1" xmlns="http://www.w3.org/2000/svg" p-id="3555" width="200" height="200"><path d="M523.50568152 166.82954538c186.0085231 5.75284075 333.6647731 159.16193152 333.6647731 345.17045462 0 189.84375-155.32670462 345.17045462-345.17045462 345.17045462-143.8210231 0-266.54829538-88.2102269-318.32386387-210.9375H205.18181848c189.84375 0 345.17045462-155.32670462 345.17045462-345.17045462 0-47.94034075-9.58806848-92.04545462-26.84659158-134.23295462m0-76.70454538c-24.9289769 0-47.94034075 11.50568152-63.28125 32.59943152-15.34090925 21.09375-17.2585231 49.85795462-7.67045462 72.86931848 13.42329538 34.51704538 21.09375 69.03409076 21.09375 105.46875 0 147.65625-120.80965924 268.46590924-268.46590842 268.46590924h-9.58806848-1.91761387c-24.9289769 0-47.94034075 11.50568152-63.28125 32.59943152-15.34090925 21.09375-17.2585231 49.85795462-7.67045461 72.86931849C189.84090925 832.2414769 341.33238613 933.875 512 933.875c232.03125 0 421.875-189.84375 421.875-421.875C933.875 283.8039769 755.53693152 97.79545462 525.42329538 90.125h-1.91761386z" p-id="3556"></path></svg>