<svg t="1696609749366" class="icon" viewBox="0 0 1024 1024" version="1.1" xmlns="http://www.w3.org/2000/svg" p-id="2728" width="200" height="200"><path d="M943.82 745.37c-22.834 0-41.471 18.534-41.471 41.472v56.934L707.686 649.114c-7.782-7.783-18.227-12.186-29.286-12.186s-21.504 4.3-29.286 12.186c-16.18 16.179-16.18 42.393 0 58.572L843.776 902.35h-57.037c-22.835 0-41.472 18.534-41.472 41.472s18.535 41.472 41.472 41.472h156.98c22.835 0 41.471-18.637 41.471-41.472V786.739c0-22.835-18.534-41.37-41.37-41.37zM180.225 121.65h56.934c22.836 0 41.472-18.534 41.472-41.472 0-22.835-18.534-41.472-41.472-41.472H80.18c-22.835 0.103-41.37 18.637-41.37 41.472v156.98c0 22.835 18.535 41.471 41.473 41.471 22.835 0 41.472-18.534 41.472-41.472v-56.934l194.662 194.662c7.782 7.783 18.227 12.186 29.286 12.186s21.504-4.3 29.287-12.186c7.782-7.782 12.185-18.227 12.185-29.286s-4.3-21.504-12.185-29.286L180.224 121.65zM943.821 38.81H786.739c-22.835 0-41.472 18.534-41.472 41.472 0 22.835 18.535 41.472 41.472 41.472h57.037l-194.662 194.56c-16.18 16.179-16.18 42.393 0 58.572 7.782 7.783 18.227 12.186 29.286 12.186s21.504-4.3 29.286-12.186l194.663-194.56v56.935c0 22.835 18.637 41.472 41.472 41.472s41.472-18.535 41.472-41.472V80.179c-0.103-22.835-18.637-41.37-41.472-41.37zM345.6 637.03c-11.06 0-21.504 4.301-29.286 12.186L121.65 843.776v-57.037c0-22.835-18.637-41.472-41.472-41.472s-41.472 18.535-41.472 41.472v156.98c0 22.835 18.535 41.471 41.472 41.471h156.98c22.835 0 41.471-18.636 41.471-41.472s-18.534-41.472-41.472-41.472h-56.934l194.662-194.662c7.783-7.782 12.186-18.227 12.186-29.286s-4.3-21.504-12.186-29.287c-7.782-7.68-18.227-11.98-29.286-11.98z" p-id="2729"></path></svg>