<svg t="1700719103513" class="icon" viewBox="0 0 1024 1024" version="1.1" xmlns="http://www.w3.org/2000/svg" p-id="3714" width="200" height="200"><path d="M622.864874 511.766544L993.8358 140.795619c6.39605-6.39605 12.792101-12.792101 17.056134-21.320168 17.056135-27.716219 12.792101-63.960504-6.39605-87.41269C991.703783 17.138644 974.647648 6.478559 955.459497 4.346543c-25.584202-4.264034-49.036387 2.132017-68.224538 21.320168L512 400.90167C388.343025 275.112678 262.554033 151.455703 138.897058 27.798728c-2.132017-4.264034-4.264034-6.39605-8.528068-8.528068C121.840923 12.87461 113.312856 6.478559 102.652772 4.346543 77.06857-4.181525 53.616385 0.082509 32.296217 15.006627c-2.132017 0-2.132017 2.132017-4.264034 2.132017-2.132017 4.264034-6.39605 6.39605-10.660084 10.660084 0 2.132017-2.132017 2.132017-2.132016 4.264033-4.264034 6.39605-8.528067 14.924118-10.660084 23.452185-8.528067 29.848235-4.264034 57.564454 19.188151 78.884622L401.135126 511.766544C275.346134 635.423519 151.689159 761.212511 28.032183 884.869486l-8.528067 8.528068c-6.39605 8.528067-12.792101 17.056135-14.924117 27.716218-6.39605 25.584202-2.132017 49.036387 12.7921 68.224538 0 2.132017 2.132017 2.132017 2.132017 4.264034 2.132017 4.264034 4.264034 8.528067 8.528067 12.792101 2.132017 0 2.132017 2.132017 4.264034 2.132017 6.39605 6.39605 14.924118 10.660084 23.452185 12.7921 29.848235 6.39605 57.564454 2.132017 78.884622-21.320168L512 622.631418l370.970925 370.970926c6.39605 6.39605 12.792101 12.792101 21.320169 17.056134 27.716219 17.056135 63.960504 12.792101 87.412689-6.39605 14.924118-12.792101 25.584202-29.848235 27.716218-49.036387 4.264034-25.584202-2.132017-49.036387-21.320168-68.224538L622.864874 511.766544z" p-id="3715"></path></svg>