<svg t="1694932495131" class="icon" viewBox="0 0 1024 1024" version="1.1" xmlns="http://www.w3.org/2000/svg" p-id="3859" width="200" height="200"><path d="M837.818182 186.181818h-20.945455l-4.654545-23.272727c-23.272727-95.418182-109.381818-162.909091-209.454546-162.909091h-181.527272c-100.072727 0-186.181818 67.490909-209.454546 162.909091l-4.654545 23.272727H186.181818c-102.4 0-186.181818 83.781818-186.181818 186.181818v256c0 218.763636 176.872727 395.636364 395.636364 395.636364h232.727272c218.763636 0 395.636364-176.872727 395.636364-395.636364V372.363636c0-102.4-83.781818-186.181818-186.181818-186.181818zM421.236364 93.090909h181.527272c55.854545 0 104.727273 37.236364 118.690909 93.090909H302.545455c13.963636-55.854545 62.836364-93.090909 118.690909-93.090909zM930.909091 628.363636c0 167.563636-134.981818 302.545455-302.545455 302.545455H395.636364C228.072727 930.909091 93.090909 795.927273 93.090909 628.363636V372.363636c0-51.2 41.890909-93.090909 93.090909-93.090909h651.636364c51.2 0 93.090909 41.890909 93.090909 93.090909v256z" fill="#2D3548" p-id="3860"></path><path d="M628.363636 512H395.636364c-25.6 0-46.545455 20.945455-46.545455 46.545455s20.945455 46.545455 46.545455 46.545454h232.727272c25.6 0 46.545455-20.945455 46.545455-46.545454s-20.945455-46.545455-46.545455-46.545455z" fill="#2D3548" p-id="3861"></path></svg>