<svg t="1695721520311" class="icon" viewBox="0 0 1024 1024" version="1.1" xmlns="http://www.w3.org/2000/svg" p-id="4267" width="200" height="200"><path d="M933.290059 541.116771h-84.171312c-15.569886 0-28.105271-12.535384-28.105271-28.03302 0-15.497636 12.535384-28.033021 28.105271-28.033021h84.171312c15.497636 0 28.033021 12.535384 28.03302 28.033021 0 15.497636-12.535384 28.033021-28.03302 28.03302zM782.323573 282.497707c-10.765258 10.837508-28.394271 10.837508-39.231779 0-10.837508-10.837508-10.837508-28.466521 0-39.304029l58.883793-58.883793c10.837508-10.837508 28.466521-10.837508 39.304029 0 10.837508 10.837508 10.837508 28.394271 0 39.231779L782.323573 282.497707z m-269.817823 483.244479c-139.587102 0-252.658435-113.071333-252.658435-252.658435 0-139.478727 113.071333-252.658435 252.658435-252.658435 139.478727 0 252.55006 113.143583 252.55006 252.658435 0 139.587102-113.071333 252.658435-252.55006 252.658435z m0-448.997954c-108.447329 0-196.339519 87.892189-196.339518 196.339519 0 108.447329 87.892189 196.339519 196.339518 196.339519 108.338954 0 196.231144-87.892189 196.231144-196.339519 0.036125-108.447329-87.856064-196.339519-196.231144-196.339519z m0-112.276582c-15.569886 0-28.105271-12.535384-28.10527-28.033021v-84.171311c0-15.461511 12.535384-28.033021 28.10527-28.033021a28.033021 28.033021 0 0 1 28.033021 28.033021v84.171311c0 15.497636-12.535384 28.033021-28.033021 28.033021zM254.609186 294.852466L195.075143 235.354547c-10.945883-10.945883-10.945883-28.647146 0-39.665279 10.945883-10.945883 28.755521-10.945883 39.665279 0l59.497919 59.497919c10.945883 11.018133 10.945883 28.755521 0 39.665279a27.823495 27.823495 0 0 1-39.629155 0z m-50.719537 218.231285a28.033021 28.033021 0 0 1-28.03302 28.03302h-84.171312c-15.569886 0-28.105271-12.535384-28.10527-28.03302 0-15.497636 12.535384-28.033021 28.10527-28.033021h84.171312c15.497636 0.036125 28.033021 12.571509 28.03302 28.033021z m67.62605 201.686023c10.837508-10.837508 28.394271-10.837508 39.231779 0 10.837508 10.873633 10.837508 28.466521 0 39.340153l-58.883794 58.992169c-10.837508 10.837508-28.466521 10.837508-39.304028 0-10.837508-10.837508-10.837508-28.466521 0-39.340154l58.956043-58.992168z m240.990051 106.930078a28.033021 28.033021 0 0 1 28.033021 28.03302v84.171312c0 15.497636-12.535384 28.033021-28.033021 28.033021-15.569886 0-28.105271-12.535384-28.10527-28.033021v-84.171312c0-15.497636 12.535384-28.033021 28.10527-28.03302z m257.824314-90.384816l59.534044 59.497918a28.061921 28.061921 0 0 1 0 39.665279 28.061921 28.061921 0 0 1-39.665279 0l-59.497919-59.497918a28.061921 28.061921 0 0 1 0-39.665279c10.873633-10.945883 28.683271-10.945883 39.629154 0z" fill="#ffffff" p-id="4268"></path></svg>