<svg t="1696609294620" class="icon" viewBox="0 0 1024 1024" version="1.1" xmlns="http://www.w3.org/2000/svg" p-id="2638" width="200" height="200"><path d="M866.085 248.393l-50.25 38.4a376.978 376.978 0 0 0-295.058-140.507c-206.848 0-374.199 163.255-374.491 365.275-0.293 202.167 167.497 366.153 374.491 366.153 161.646 0 299.52-100.132 351.964-240.42a6.949 6.949 0 0 0-4.389-8.997l-50.542-16.969a7.168 7.168 0 0 0-9.07 4.17 297.691 297.691 0 0 1-70.948 108.25 307.931 307.931 0 0 1-216.795 87.772 310.857 310.857 0 0 1-119.37-23.479 305.006 305.006 0 0 1-163.181-159.524 291.913 291.913 0 0 1-24.137-116.59c0-40.521 8.118-79.726 24.137-116.59a297.691 297.691 0 0 1 65.682-95.305 307.931 307.931 0 0 1 216.869-87.771 310.857 310.857 0 0 1 119.296 23.552 305.006 305.006 0 0 1 122.294 91.574l-53.686 40.96a6.949 6.949 0 0 0 2.633 12.288l156.672 37.376c4.388 1.098 8.777-2.194 8.777-6.656l0.731-157.55c-0.073-5.704-6.948-8.923-11.63-5.412z" p-id="2639"></path></svg>