<svg t="1706681943798" class="icon" viewBox="0 0 1024 1024" version="1.1" xmlns="http://www.w3.org/2000/svg" p-id="3913" width="200" height="200"><path d="M987.3 326.333c-11.473 0-20.734 9.302-20.734 20.757v500.2c0 67.371-54.816 122.182-122.182 122.182H177.4c-67.367 0-122.182-54.81-122.182-122.182V180.31c0-67.37 54.816-122.182 122.182-122.182h500.265c11.474 0 20.734-9.28 20.734-20.74 0-11.454-9.26-20.734-20.734-20.734H177.4c-90.259 0-163.676 73.416-163.676 163.674v667.027c0 90.216 73.417 163.652 163.676 163.652h667.027c90.215 0 163.651-73.436 163.633-163.652V347.091c-0.001-11.455-9.285-20.758-20.76-20.758z m0 0" p-id="3914"></path><path d="M279.9 597.336c-0.622 0.891-1.47 1.536-1.987 2.55L158.8 838.074c-3.979 7.974-2.405 17.608 3.911 23.948a20.888 20.888 0 0 0 14.69 6.069 20.77 20.77 0 0 0 9.279-2.196l238.192-119.053c1.18-0.578 1.987-1.573 3.001-2.341 0.769-0.56 1.678-0.868 2.385-1.575l452.488-452.533c0.043-0.044 0.104-0.044 0.147-0.086 0.044-0.038 0.062-0.1 0.104-0.142l68.443-68.448c17.444-17.42 27.079-40.58 27.079-65.208 0-24.632-9.636-47.77-27.08-65.215L933.4 73.273c-17.4-17.445-40.545-27.017-65.171-27.017-24.632 0-47.75 9.573-65.171 27.017L281.85 594.476c-0.873 0.83-1.286 1.93-1.95 2.86z m22.271 46.816l78.428 78.409-156.838 78.41 78.41-156.819zM832.37 102.626c19.184-19.165 52.512-19.203 71.696 0l18.046 18c9.587 9.573 14.894 22.332 14.894 35.86 0 13.55-5.307 26.29-14.894 35.878l-53.906 53.906-89.742-89.76 53.906-53.884z m-83.236 83.236l89.742 89.762L415.61 698.906l-89.76-89.785 423.283-423.259z m0 0" p-id="3915"></path></svg>