<svg t="1695710167479" class="icon" viewBox="0 0 1024 1024" version="1.1" xmlns="http://www.w3.org/2000/svg" p-id="25921" width="200" height="200"><path d="M477.9 102.4c207 0 375.5 168.4 375.5 375.5S684.9 853.3 477.9 853.3 102.4 684.9 102.4 477.9s168.4-375.5 375.5-375.5m0-102.4C213.9 0 0 213.9 0 477.9s213.9 477.9 477.9 477.9c263.9 0 477.9-213.9 477.9-477.9S741.8 0 477.9 0z" fill="#ffffff" p-id="25922"></path><path d="M796.7 745.5c-13.1 0-26.2 5-36.2 15-20 20-20 52.4 0 72.4L936.6 1009c10 10 23.1 15 36.2 15 13.1 0 26.2-5 36.2-15 20-20 20-52.4 0-72.4L833 760.5c-10-10-23.2-15-36.3-15z" fill="#ffffff" p-id="25923"></path></svg>