<svg t="1696609774663" class="icon" viewBox="0 0 1024 1024" version="1.1" xmlns="http://www.w3.org/2000/svg" p-id="2871" width="200" height="200"><path d="M355.0208 156.5696c-22.8352 0-41.472 18.5344-41.472 41.472V254.976L109.4656 50.8928C93.3888 34.816 67.072 34.816 50.8928 50.8928 34.816 67.072 34.816 93.3888 50.8928 109.4656L254.976 313.5488h-57.0368c-22.8352 0-41.472 18.5344-41.472 41.472 0 22.8352 18.5344 41.472 41.472 41.472h156.9792c1.3312 0 2.6624-0.1024 4.096-0.2048 0.512 0 0.9216-0.1024 1.3312-0.2048l1.1264-0.2048c0.512-0.1024 1.024-0.1024 1.536-0.2048 0.6144-0.1024 1.2288-0.3072 1.8432-0.4096l0.9216-0.2048c0.4096-0.1024 0.7168-0.2048 1.1264-0.3072 0.6144-0.2048 1.3312-0.4096 1.9456-0.7168l0.8192-0.3072c0.4096-0.1024 0.7168-0.2048 1.1264-0.4096l1.8432-0.9216 0.7168-0.4096c0.3072-0.2048 0.7168-0.3072 1.024-0.512l2.1504-1.2288 0.512-0.3072c0.3072-0.2048 0.512-0.3072 0.8192-0.512 1.024-0.7168 1.9456-1.4336 2.6624-1.9456l0.2048-0.1024c0.1024-0.1024 0.3072-0.2048 0.4096-0.3072 2.1504-1.7408 4.1984-3.7888 5.9392-5.9392 0.1024-0.1024 0.2048-0.3072 0.3072-0.4096l0.1024-0.2048c0.8192-1.024 1.4336-1.8432 1.9456-2.6624 0.2048-0.3072 0.3072-0.512 0.512-0.8192l0.4096-0.7168c0.4096-0.6144 0.7168-1.2288 1.1264-1.9456 0.2048-0.3072 0.3072-0.7168 0.512-1.024l0.4096-0.8192c0.3072-0.6144 0.6144-1.2288 0.8192-1.8432 0.2048-0.4096 0.3072-0.8192 0.4096-1.1264l0.3072-0.8192 0.6144-1.8432c0.1024-0.4096 0.2048-0.8192 0.3072-1.1264l0.3072-1.024c0.1024-0.6144 0.3072-1.1264 0.4096-1.7408 0.1024-0.512 0.2048-1.024 0.2048-1.536l0.2048-1.024c0.1024-0.4096 0.1024-0.9216 0.2048-1.3312 0.1024-1.4336 0.2048-2.7648 0.2048-4.096V197.9392c0-22.8352-18.5344-41.3696-41.3696-41.3696zM628.0192 360.3456c0 0.2048 0.1024 0.4096 0.1024 0.6144l0.1024 0.6144c0.1024 0.512 0.1024 1.024 0.2048 1.4336 0.1024 0.6144 0.3072 1.2288 0.4096 1.8432l0.2048 0.8192 0.3072 1.2288c0.2048 0.7168 0.4096 1.3312 0.7168 1.9456l0.2048 0.7168c0.1024 0.4096 0.3072 0.8192 0.4096 1.1264 0.3072 0.6144 0.512 1.2288 0.8192 1.8432l0.4096 0.8192c0.2048 0.3072 0.3072 0.7168 0.512 1.024 0.4096 0.7168 0.8192 1.4336 1.2288 2.048l0.3072 0.512c0.2048 0.3072 0.3072 0.6144 0.512 0.8192 0.6144 1.024 1.3312 1.9456 1.9456 2.6624 0 0.1024 0.1024 0.1024 0.1024 0.2048 0.1024 0.1024 0.2048 0.3072 0.3072 0.4096 1.7408 2.1504 3.7888 4.1984 5.9392 5.9392 0.1024 0.1024 0.3072 0.2048 0.4096 0.3072l0.2048 0.1024c0.7168 0.512 1.6384 1.3312 2.6624 1.9456 0.3072 0.2048 0.512 0.3072 0.8192 0.512l0.6144 0.3072c0.6144 0.4096 1.3312 0.8192 2.048 1.2288 0.3072 0.2048 0.7168 0.3072 1.024 0.512l0.7168 0.3072c0.6144 0.3072 1.3312 0.6144 1.9456 0.9216 0.3072 0.1024 0.7168 0.3072 1.024 0.4096l0.8192 0.3072c0.6144 0.2048 1.3312 0.512 1.9456 0.7168 0.4096 0.1024 0.7168 0.2048 1.1264 0.3072l0.9216 0.2048c0.6144 0.2048 1.2288 0.3072 1.8432 0.4096 0.512 0.1024 1.024 0.2048 1.536 0.2048l1.1264 0.2048c0.4096 0.1024 0.9216 0.1024 1.4336 0.2048 1.4336 0.1024 2.7648 0.2048 4.096 0.2048h156.9792c22.8352 0 41.472-18.5344 41.472-41.472 0-22.8352-18.5344-41.472-41.472-41.472H769.024l204.0832-204.0832c16.1792-16.1792 16.1792-42.3936 0-58.5728s-42.3936-16.1792-58.5728 0L710.4512 254.976v-57.0368c0-22.8352-18.6368-41.472-41.472-41.472s-41.472 18.5344-41.472 41.472v156.9792c0 1.3312 0.1024 2.6624 0.2048 4.096 0.1024 0.512 0.2048 0.9216 0.3072 1.3312zM395.9808 663.552l-0.2048-1.024c-0.1024-0.512-0.1024-1.024-0.2048-1.536-0.1024-0.6144-0.3072-1.1264-0.4096-1.7408l-0.3072-1.024c-0.1024-0.4096-0.2048-0.8192-0.3072-1.1264l-0.6144-1.8432-0.3072-0.8192c-0.1024-0.4096-0.3072-0.8192-0.4096-1.1264-0.3072-0.6144-0.512-1.2288-0.8192-1.8432l-0.4096-0.8192c-0.2048-0.3072-0.3072-0.7168-0.512-1.024-0.3072-0.6144-0.7168-1.2288-1.1264-1.9456l-0.4096-0.7168c-0.2048-0.3072-0.3072-0.512-0.512-0.8192-0.512-0.8192-1.1264-1.6384-1.9456-2.6624l-0.1024-0.2048c-0.1024-0.1024-0.2048-0.3072-0.3072-0.4096-1.7408-2.1504-3.7888-4.096-5.9392-5.9392-0.1024-0.1024-0.3072-0.2048-0.4096-0.3072l-0.2048-0.1024c-0.7168-0.512-1.6384-1.3312-2.6624-1.9456-0.3072-0.2048-0.512-0.3072-0.8192-0.512-0.1024-0.1024-0.3072-0.2048-0.4096-0.2048l-0.2048-0.1024c-0.6144-0.4096-1.3312-0.8192-2.048-1.2288-0.3072-0.2048-0.6144-0.3072-0.9216-0.512l-0.8192-0.4096c-0.6144-0.3072-1.2288-0.6144-1.9456-0.8192-0.3072-0.1024-0.7168-0.3072-1.024-0.4096l-0.7168-0.3072c-0.6144-0.2048-1.3312-0.512-1.9456-0.7168-0.4096-0.1024-0.8192-0.2048-1.1264-0.3072l-0.9216-0.2048c-0.6144-0.2048-1.2288-0.3072-1.8432-0.4096-0.512-0.1024-1.024-0.2048-1.536-0.2048l-1.1264-0.2048c-0.4096-0.1024-0.9216-0.1024-1.3312-0.2048-1.4336-0.1024-2.7648-0.2048-4.096-0.2048H197.9392c-22.8352 0-41.472 18.5344-41.472 41.472s18.5344 41.472 41.472 41.472H254.976L50.8928 914.5344c-16.1792 16.1792-16.1792 42.3936 0 58.5728 7.7824 7.7824 18.2272 12.1856 29.2864 12.1856s21.504-4.3008 29.2864-12.1856L313.5488 769.024v57.0368c0 22.8352 18.6368 41.472 41.472 41.472s41.472-18.6368 41.472-41.472V668.9792c0-1.3312-0.1024-2.6624-0.2048-4.096-0.1024-0.4096-0.2048-0.8192-0.3072-1.3312zM769.024 710.4512h57.0368c22.8352 0 41.472-18.5344 41.472-41.472s-18.5344-41.472-41.472-41.472H668.9792c-1.3312 0-2.6624 0.1024-4.096 0.2048-0.512 0-0.9216 0.1024-1.3312 0.2048l-1.1264 0.2048c-0.512 0.1024-1.024 0.1024-1.536 0.2048-0.6144 0.1024-1.2288 0.3072-1.8432 0.4096l-0.9216 0.2048c-0.4096 0.1024-0.8192 0.2048-1.1264 0.3072-0.6144 0.2048-1.3312 0.4096-1.9456 0.7168l-0.8192 0.3072c-0.4096 0.1024-0.7168 0.2048-1.1264 0.4096-0.6144 0.3072-1.3312 0.6144-1.9456 0.9216l-0.7168 0.3072c-0.3072 0.2048-0.7168 0.3072-1.024 0.512-0.7168 0.4096-1.4336 0.8192-2.048 1.2288l-0.6144 0.4096c-0.3072 0.2048-0.512 0.3072-0.8192 0.512-0.8192 0.512-1.6384 1.1264-2.6624 1.9456l-0.2048 0.1024c-0.1024 0.1024-0.3072 0.2048-0.4096 0.3072-2.1504 1.7408-4.096 3.7888-5.9392 5.9392-0.1024 0.1024-0.2048 0.3072-0.3072 0.4096l-0.1024 0.2048c-0.6144 0.8192-1.3312 1.6384-1.9456 2.6624-0.2048 0.3072-0.3072 0.6144-0.512 0.8192l-0.3072 0.512c-0.4096 0.6144-0.8192 1.3312-1.2288 2.048-0.2048 0.3072-0.3072 0.7168-0.512 1.024l-0.4096 0.8192c-0.3072 0.6144-0.6144 1.2288-0.8192 1.8432-0.2048 0.4096-0.3072 0.8192-0.4096 1.1264l-0.2048 0.6144c-0.2048 0.6144-0.512 1.3312-0.7168 1.9456l-0.3072 1.2288-0.2048 0.8192c-0.2048 0.6144-0.3072 1.2288-0.4096 1.8432-0.1024 0.512-0.2048 1.024-0.2048 1.4336l-0.1024 0.6144c0 0.2048-0.1024 0.4096-0.1024 0.6144-0.1024 0.4096-0.1024 0.9216-0.2048 1.3312-0.1024 1.4336-0.2048 2.7648-0.2048 4.096v156.9792c0 22.8352 18.5344 41.472 41.472 41.472 22.8352 0 41.472-18.6368 41.472-41.472V769.024l204.0832 204.0832c7.7824 7.7824 18.2272 12.1856 29.2864 12.1856s21.504-4.3008 29.2864-12.1856c16.1792-16.1792 16.1792-42.3936 0-58.5728L769.024 710.4512z" p-id="2872"></path></svg>