<svg t="1696405813041" class="icon" viewBox="0 0 1024 1024" version="1.1" xmlns="http://www.w3.org/2000/svg" p-id="3384" width="200" height="200"><path d="M507.584 128a200 200 0 1 0 141.424 58.576A198.688 198.688 0 0 0 507.584 128m0-64a264 264 0 1 1-264 264A264 264 0 0 1 507.584 64z" p-id="3385"></path><path d="M161.168 981.376a32 32 0 0 1-31.904-29.904c-8-122.544 22.16-221.456 89.728-294a348.272 348.272 0 0 1 93.328-70.4 440.448 440.448 0 0 1 93.104-35.712 450.944 450.944 0 0 1 101.984-15.312 32 32 0 0 1 0.416 64 396.64 396.64 0 0 0-88 13.712 374.576 374.576 0 0 0-78.912 30.592 283.808 283.808 0 0 0-75.392 57.152c-54.816 59.088-79.168 141.808-72.352 245.84a32 32 0 0 1-29.84 34.016l-2.16 0.016zM640.416 999.632h-15.648l-76.048-43.504-15.504-24.672 13.056-13.504a15.712 15.712 0 0 0 4.544-11.12 16 16 0 0 0-20.992-15.216l-17.84 5.84-28.368-45.376v-100.016l23.296-35.328 19.712 11.824a16 16 0 0 0 17.6-26.704l-18.624-13.472 23.536-35.68 82.304-44.72h26.576l5.616 16.096a16 16 0 0 0 30.24 0L699.616 608h43.552l75.2 45.056 24.56 36.048-15.024 14.048a16 16 0 0 0 10.912 27.68 15.616 15.616 0 0 0 6.88-1.6l18.576-8.864 18.688 27.424v104.64l-27.056 40.544-14.88-2.032a16.368 16.368 0 0 0-2.208-0.112 16 16 0 0 0-13.824 24l7.632 12.976-18.816 28.176-72.192 43.648h-42.4l-5.04-17.28a16 16 0 0 0-30.736 0l-5.04 17.28z m38.4-76.8a64.384 64.384 0 0 1 52.256 27.088l45.664-27.552a64 64 0 0 1 54.672-79.12l3.568-5.344v-59.2a64 64 0 0 1-53.664-91.904l-50.704-30.4a64 64 0 0 1-98.704 5.904l-40.752 22.128a64 64 0 0 1-56.336 94.4q-1.6 0-3.2-0.08v59.552l2.832 4.544h0.368a64 64 0 0 1 60.592 84.704l33.6 19.2a64.336 64.336 0 0 1 49.808-23.92z" p-id="3386"></path><path d="M684.56 771.824a32 32 0 0 0 0 64 27.696 27.696 0 0 0 20.576-8.592 33.6 33.6 0 0 0 8.848-23.408 33.6 33.6 0 0 0-8.848-23.408 27.696 27.696 0 0 0-20.576-8.592m0-48a77.84 77.84 0 0 1 77.424 80 77.84 77.84 0 0 1-77.424 80 80 80 0 0 1 0-160z" p-id="3387"></path></svg>