<svg t="1696241915431" class="icon" viewBox="0 0 1024 1024" version="1.1" xmlns="http://www.w3.org/2000/svg" p-id="2174" width="200" height="200"><path d="M541.615505 526.663978c64.654532-43.325761 107.243513-117.203352 107.243513-201.090925 0-133.484154-107.819634-241.648642-240.822835-241.648642s-240.822834 108.163465-240.822834 241.648642c0 83.887572 42.588981 157.765163 107.243513 201.090925-123.543757 52.413743-210.454176 175.23607-210.454176 318.053799v64.884776c0.002047 18.996656 15.401782 34.396391 34.398438 34.398438 19.000749 0.002047 34.405601-15.398712 34.407648-34.398438v-64.884776c0-152.406109 123.438357-276.326443 275.225365-276.326442s275.225365 123.920334 275.225365 276.326442v64.884776c0 19.000749 15.402805 34.403554 34.403554 34.403555 19.000749 0 34.403554-15.402805 34.403555-34.403555v-64.884776c0.00307-142.81773-86.907349-265.640056-210.451106-318.053799zM236.020458 325.573053c0-95.296413 77.20129-172.841533 172.015725-172.841533s172.015725 77.54512 172.015726 172.841533S502.852666 498.414587 408.037207 498.414587s-172.016749-77.544097-172.016749-172.841534z" p-id="2175"></path><path d="M823.339888 509.965667a172.676781 172.676781 0 0 0 35.29076-36.924981c54.996568-77.976956 36.367279-185.772031-41.608653-240.768598a170.230056 170.230056 0 0 0-128.59889-28.623921c-17.055444 4.024663-28.359908 20.22667-26.250874 37.622875 2.286066 18.862603 19.429515 32.30066 38.292118 30.014594a102.799294 102.799294 0 0 1 77.063143 17.201778 103.968933 103.968933 0 0 1 42.241057 66.150605c10.349719 56.478316-27.045983 110.653169-83.524299 121.002888-2.563382 0.432859-5.003967 1.172709-7.325849 2.125407a270.28382 270.28382 0 0 0-37.192063-2.675945h-0.031723c-19.000749 0.008186-34.396391 15.418154-34.387181 34.418904 0.00921 19.000749 15.419178 34.396391 34.418904 34.387181 109.862153 0.341784 198.720947 89.538269 198.644199 199.401446v48.921199c0 19.000749 15.402805 34.403554 34.403554 34.403555 19.000749 0 34.403554-15.402805 34.403555-34.403555v-48.921199c0.025583-99.983155-54.689576-187.207729-135.837758-233.332233z" p-id="2176"></path></svg>